<?xml version="1.0" encoding="utf-8"?>
<!-- Generator: Adobe Illustrator 24.3.0, SVG Export Plug-In . SVG Version: 6.00 Build 0)  -->
<svg version="1.1" id="Layer_1" xmlns="http://www.w3.org/2000/svg" xmlns:xlink="http://www.w3.org/1999/xlink" x="0px" y="0px"
	 viewBox="0 0 128 128" style="enable-background:new 0 0 128 128;" xml:space="preserve">
<style type="text/css">
	.st0{fill:#ECEBE9;}
	.st1{fill:url(#SVGID_1_);}
</style>
<path class="st0" d="M79.5,6l-4.3,8.5l-2.6,5.1l-3.7,7.3l-4.9,9.7l4.9,9.6l9.8-19.4l3.7-7.3l2.6-5.1h10.8l-2.6,5.1l-3.7,7.3
	l-15.2,30l-4.1,8l-5.4-10.6l-4.9-9.6l-9-17.7l-3.7-7.3H18.1l3.7,7.3l23.5,46.3L25,113.3l-4.4,8.7H51l4.4-8.7l5.2-10.2l4.1-8.2
	l-4.9-9.6l-5.4-10.6L49.5,65L30.1,26.9h12.5l13.1,25.9l4.9,9.6L66,73l4.9,9.6l4.1-8.2l4.1-8l20.1-39.6l3.7-7.3l2.6-5.1l4.3-8.5H79.5
	z M55.7,93.5l-10.1,19.8H34.8l15.5-30.5L55.7,93.5z"/>
<linearGradient id="SVGID_1_" gradientUnits="userSpaceOnUse" x1="40.6767" y1="84.9917" x2="50.9695" y2="78.8462">
	<stop  offset="0" style="stop-color:#ECEBE9"/>
	<stop  offset="0.3396" style="stop-color:#EAE9E7"/>
	<stop  offset="0.4619" style="stop-color:#E3E2E0"/>
	<stop  offset="0.5491" style="stop-color:#D8D7D5"/>
	<stop  offset="0.6196" style="stop-color:#C7C6C4"/>
	<stop  offset="0.6801" style="stop-color:#B1B0AE"/>
	<stop  offset="0.7336" style="stop-color:#959593"/>
	<stop  offset="0.782" style="stop-color:#757473"/>
	<stop  offset="0.8264" style="stop-color:#4F4F4E"/>
	<stop  offset="0.866" style="stop-color:#262626"/>
	<stop  offset="0.8972" style="stop-color:#000000"/>
</linearGradient>
<polygon class="st1" points="45.3,73.2 50.3,82.8 46.3,90.7 41.3,81.2 "/>
</svg>
