<?xml version="1.0" encoding="utf-8"?>
<!-- Generator: Adobe Illustrator 28.1.0, SVG Export Plug-In . SVG Version: 6.00 Build 0)  -->
<svg version="1.1" id="Layer_1" xmlns="http://www.w3.org/2000/svg" xmlns:xlink="http://www.w3.org/1999/xlink" x="0px" y="0px"
	 viewBox="0 0 193 192" style="enable-background:new 0 0 193 192;" xml:space="preserve">
<style type="text/css">
	.st0{fill:#ECEBE9;}
</style>
<g>
	<path class="st0" d="M188.8,38.8v-0.2l-0.1-0.3c-1.1-6-2-11.4-3.1-17.5c-0.1-0.9-0.5-1.7-1.1-2.3l-0.3-0.3L184,18
		c-4-2.4-7.7-4.6-11.6-6.9c-2.2-1.3-4.6-2.7-6.9-4c-0.4-0.3-0.8-0.5-1.2-0.7c-0.6-0.3-1.1-0.6-1.6-0.9l-0.2-0.1l-0.2-0.1
		c-0.2-0.1-0.4-0.2-0.6-0.4c-0.3-0.2-0.7-0.4-1.2-0.7l-1.2-0.6L158,4.1c-4.8,1.8-9.5,3.7-14.1,5.5c-3.1,1.2-6.4,2.5-9.6,3.8
		c-29.9,0-55.4,0-75.6,0c-3.2-1.2-6.4-2.5-9.6-3.8C44.5,7.8,39.7,5.9,35,4.1l-1.3-0.5l-1.2,0.6c-0.5,0.2-0.8,0.5-1.2,0.7
		c-0.2,0.1-0.4,0.3-0.6,0.4l-0.2,0.1l-0.2,0.1c-0.5,0.3-1,0.6-1.6,0.9c-0.4,0.2-0.8,0.4-1.2,0.7c-2.4,1.4-4.7,2.8-7,4.1
		C16.7,13.4,13,15.6,9,18l-0.3,0.2l-0.3,0.3c-0.6,0.6-1,1.4-1.1,2.3c-1,6.2-1.9,11.5-3.1,17.5l-0.1,0.3v0.2c0,0.4-0.1,1.4,0.6,2.6
		l0.1,0.1c1.9,2.6,3.8,5.1,5.6,7.6c3,4.1,5.8,7.9,8.7,12c-3,13.6-6,27.2-9,40.5c-0.6,2.6-1.2,5.2-1.7,7.8L5.3,123l19.6-25.8L20,93.5
		l-2.5,3.3c2.6-11.6,5.2-23.5,7.8-35.3l13-24.9l-5.5-2.8l-5.1,9.8L23.2,36l1.8-7.8l7.7-3.5l11,5l2.6-5.5L32.7,18l-13.1,5.9l-3,13.1
		l7.8,13L22,54.5c-2.2-3-4.4-6-6.6-9.1c-1.6-2.2-3.3-4.5-5-6.8c1-5.5,1.9-10.5,2.8-16.1c3.6-2.2,6.9-4.1,10.5-6.2
		c2.3-1.3,4.6-2.7,7-4.1c0.3-0.2,0.7-0.4,1-0.6c0.6-0.3,1.3-0.7,2-1.2c0.2-0.1,0.3-0.2,0.5-0.3c4.2,1.6,8.5,3.3,12.6,4.9
		c3.1,1.3,6.4,2.5,9.6,3.8c11.5,0,26.2,0.2,42.4,0.2c12.3,0,24.8-0.2,37.8-0.2c3.2-1.2,6.5-2.5,9.6-3.8c4.1-1.6,8.4-3.3,12.6-4.9
		c0.1,0.1,0.3,0.2,0.5,0.3c0.7,0.5,1.4,0.8,2,1.2c0.3,0.2,0.7,0.4,1,0.6c2.4,1.4,4.7,2.8,7,4.1c3.5,2.1,6.9,4,10.5,6.2
		c0.9,5.6,1.8,10.6,2.8,16.1c-1.7,2.3-3.4,4.6-5,6.8c-2.3,3.1-4.4,6-6.6,9.1l-2.3-4.5l7.8-13l-3-13.1L160.4,18l-13.6,6.2l2.6,5.5
		l11-5l7.7,3.5l1.8,7.8l-4.5,7.6l-5.1-9.8l-5.5,2.8l13,24.9c2.7,12.3,5.4,24.6,8.1,36.7l-5-6l-4.8,3.9l21.3,25.5l-2.8-12.3
		c-0.6-2.6-1.2-5.2-1.7-7.7c-3-13.3-6-26.9-9-40.5c2.9-4,5.7-7.9,8.7-12c1.8-2.5,3.7-5,5.5-7.6l0.1-0.1
		C189,40.2,188.9,39.2,188.8,38.8"/>
	<path class="st0" d="M185.5,122.9l-14.3-16.7l-4.7,3.9l9.9,11.6l-15.8,11l4.2-10.1l-5.7-2.3l-7.9,19l-25.6,17.8l13.3-15.5v-24.2
		l-10-23.8l4-1.6l2.8-6.4L133,79l-6.5-2.7l-6.6,2.6l-2.7,6.2L97.1,73.8l0,0l-21,11.5L73.6,79l-6.5-2.7l-6.6,2.6l-2.8,6.4l2.7,6.5
		l4,1.7l-10,23.8v24.2l12.1,14.1l-23.8-15.2l-10-19.2l-5.5,2.8l5.1,9.8l-16.5-10.5l7.3-9.7l-5-3.6L6.9,125l73.4,47l14.2,16.6h4.2
		l11-12.9L185.5,122.9z M122.7,82.1l1.6-0.8h0.1l0,0l2.3-0.1l2.8,1.2l1.6,1.7l-0.5,1.2l-2.3,0.1l-2.8-1.2l-3.3-0.3l-0.4-0.7
		L122.7,82.1z M62.7,83.9l-0.4-0.7l0.9-1.1l1.6-0.8h0.1l0,0l2.3-0.1l2.8,1.2l1.6,1.7l-0.5,1.2l-2.3,0.1L66,84.2L62.7,83.9z
		 M96.7,181.3l-36-42v-20.8l9.7-23.1L97,80.8l26,14.6l9.7,23.1v20.8L96.7,181.3z"/>
	<polygon class="st0" points="98.8,121.2 107.2,118.1 111.7,108.6 107.4,99.1 104.5,98 96.7,94.4 88.4,98.1 86.3,98.9 81.8,108.4 
		86.1,118 94.7,121.3 94.7,136.4 83.6,136.4 83.6,140.4 109.8,140.4 109.8,136.4 98.8,136.4 	"/>
	<polygon class="st0" points="115.9,64.4 113.2,61.3 121.4,54.3 129.7,53.1 140.2,57.6 138.5,61.4 129.1,57.3 123.2,58.2 	"/>
	<polygon class="st0" points="69.7,65.1 61.3,64.5 53.9,68.5 55.8,72.1 62.2,68.7 68.2,69.1 76.1,74.6 78.5,71.3 	"/>
	<polygon class="st0" points="51.3,69.9 53.2,73.5 55.1,72.5 53.2,68.9 	"/>
</g>
</svg>
