<?xml version="1.0" encoding="utf-8"?>
<!-- Generator: Adobe Illustrator 28.1.0, SVG Export Plug-In . SVG Version: 6.00 Build 0)  -->
<svg version="1.1" id="Layer_1" xmlns="http://www.w3.org/2000/svg" xmlns:xlink="http://www.w3.org/1999/xlink" x="0px" y="0px"
	 viewBox="0 0 128 128" style="enable-background:new 0 0 128 128;" xml:space="preserve">
<style type="text/css">
	.st0{fill:#ECEBE9;}
</style>
<g>
	<g>
		<g>
			<g>
				<path class="st0" d="M81.5,22.5c-3.6-7.3-9.5-13.9-17-18.9L64,3.3l-0.5,0.4c-3.8,2.5-7.2,5.5-10.1,8.7
					c-2.8,3.1-5.1,6.5-6.9,10.1l-0.5,1l1,0.4c6.7,2.4,12.4,6.5,16.2,11.7l0.8,1.1l0.8-1.1c1.8-2.5,4.1-4.8,6.8-6.7
					c2.8-2.1,5.9-3.7,9.4-4.9l1-0.4L81.5,22.5z M64,28.3c-2.7-2.9-6-5.5-9.6-7.5c2.5-3.6,5.8-6.9,9.6-9.8c3.8,2.9,7.1,6.2,9.6,9.8
					C70,22.8,66.7,25.3,64,28.3z"/>
			</g>
			<path class="st0" d="M82.1,39.8l0.8,0.6l3.4-4.5l-0.8-0.6c-1.6-1.2-3.4-2.3-5.3-3.3c-2-1-4.1-1.9-6.3-2.5l-0.4-0.1l-0.4,0.2
				c-0.7,0.4-1.4,0.9-2.1,1.4c-0.8,0.6-1.4,1.1-1.9,1.5l-1.5,1.3l2,0.4c2.2,0.4,4.4,1.1,6.6,2C78.4,37.3,80.4,38.5,82.1,39.8z"/>
			<path class="st0" d="M69.2,95.4c0.5,0.5,1.1,0.9,1.9,1.5c0.7,0.5,1.3,0.9,2.1,1.4l0.4,0.2l0.4-0.1c2.2-0.6,4.3-1.5,6.3-2.5
				c1.8-0.9,3.6-2,5.2-3.3l0.8-0.6l-3.4-4.5l-0.8,0.6c-1.8,1.4-3.8,2.5-5.9,3.5c-2.2,0.9-4.4,1.6-6.6,2l-2,0.4L69.2,95.4z"/>
			<path class="st0" d="M42.5,92.7c1.7,1.2,3.4,2.3,5.2,3.3c2,1,4.1,1.9,6.3,2.5l0.4,0.1l0.4-0.2c0.7-0.5,1.4-0.9,2.1-1.4
				c0.6-0.5,1.3-1,1.9-1.5l1.5-1.3l-2-0.4c-2.2-0.4-4.4-1.1-6.6-2c-2.1-0.9-4.1-2.1-5.9-3.5l-0.8-0.6l-3.4,4.5L42.5,92.7z"/>
			<path class="st0" d="M45.9,39.8c1.8-1.4,3.8-2.5,5.9-3.5c2.2-0.9,4.4-1.6,6.6-2l2-0.4l-1.5-1.3c-0.5-0.5-1.1-0.9-1.9-1.5
				c-0.7-0.5-1.4-1-2.1-1.4l-0.4-0.2L54,29.5c-2.2,0.6-4.3,1.5-6.3,2.5c-1.8,0.9-3.6,2-5.2,3.3l-0.8,0.6l3.4,4.5L45.9,39.8z"/>
			<path class="st0" d="M110.9,40.1c1.5,2.9,2.7,6,3.6,9.2l0.1,0.3l0.2,0.2c0.8,0.6,1.6,1.3,2.4,2c0.8,0.7,1.6,1.4,2.4,2.2l2.2,2.2
				l-0.6-3c-1.7-8.8-5.4-17.1-10.7-24.1l-0.6-0.8l-4.5,3.4l0.6,0.8C107.9,34.8,109.5,37.4,110.9,40.1z"/>
			<path class="st0" d="M76.2,10.7c0.7,0.8,1.4,1.7,2,2.4l0.2,0.2l0.3,0.1c3.2,0.9,6.3,2.1,9.2,3.6c2.7,1.4,5.3,3,7.7,4.8l0.8,0.6
				l3.4-4.5L99,17.4c-7-5.3-15.3-9-24.1-10.7l-3-0.6L74,8.4C74.8,9.2,75.5,10,76.2,10.7z"/>
			<path class="st0" d="M32.4,21.9c2.4-1.8,5-3.5,7.7-4.8c2.9-1.5,6-2.7,9.2-3.6l0.3-0.1l0.2-0.2c0.6-0.8,1.3-1.6,2-2.4
				c0.6-0.7,1.4-1.6,2.2-2.4l2.2-2.2l-3,0.6C44.3,8.4,36,12.1,29,17.4L28.2,18l3.4,4.5L32.4,21.9z"/>
			<path class="st0" d="M93.7,58.3l0.4,2l1.3-1.5c0.5-0.6,1-1.2,1.6-1.9c0.5-0.7,1-1.5,1.4-2.1l0.2-0.4L98.5,54
				c-0.6-2.2-1.5-4.3-2.5-6.3l0,0c-0.9-1.8-2-3.6-3.3-5.3l-0.6-0.8l-4.5,3.4l0.6,0.8c1.4,1.8,2.5,3.8,3.5,5.9
				C92.6,53.9,93.3,56.1,93.7,58.3z"/>
			<path class="st0" d="M92.1,86.3l0.6-0.8c1.3-1.7,2.4-3.4,3.3-5.3c1-2,1.9-4.1,2.5-6.3l0.1-0.4l-0.2-0.4c-0.4-0.7-0.9-1.4-1.4-2.1
				c-0.5-0.6-1-1.3-1.5-1.9l-1.3-1.5l-0.4,2c-0.4,2.2-1.1,4.4-2,6.6c-0.9,2.1-2.1,4.1-3.5,5.9l-0.6,0.8L92.1,86.3z"/>
			<path class="st0" d="M51.8,117.3c-0.7-0.8-1.4-1.7-2-2.4l-0.2-0.2l-0.3-0.1c-3.2-0.9-6.3-2.1-9.2-3.6c-2.7-1.4-5.3-3-7.7-4.8
				l-0.8-0.6l-3.4,4.5l0.8,0.6c7,5.3,15.3,9,24.1,10.7l3,0.6l-2.2-2.2C53.1,118.8,52.4,117.9,51.8,117.3z"/>
			<path class="st0" d="M95.6,106.1L95.6,106.1c-2.4,1.8-5,3.4-7.7,4.8c-3,1.5-6.1,2.7-9.2,3.6l-0.3,0.1l-0.2,0.2
				c-0.6,0.7-1.3,1.6-2,2.4c-0.6,0.7-1.4,1.5-2.2,2.3l-2.2,2.2l3-0.6c8.8-1.7,17.1-5.4,24.1-10.7l0.8-0.6l-3.4-4.5L95.6,106.1z"/>
			<g>
				<path class="st0" d="M81,104.1c-6.7-2.4-12.4-6.5-16.2-11.7L64,91.4l-0.8,1.1c-3.8,5.1-9.5,9.3-16.2,11.7l-1,0.4l0.5,1
					c3.6,7.3,9.5,13.9,17,18.9l0.5,0.4l0.5-0.4c3.8-2.5,7.2-5.5,10.1-8.7c2.8-3.1,5.1-6.6,6.9-10.1l0.5-1L81,104.1z M64,117
					c-3.8-2.9-7.1-6.2-9.6-9.8c3.6-2,6.9-4.6,9.6-7.5c2.7,2.9,6,5.5,9.6,7.5C71.1,110.8,67.8,114.1,64,117z"/>
			</g>
			<path class="st0" d="M119.6,74c-0.8,0.8-1.6,1.5-2.3,2.2c-0.8,0.7-1.6,1.4-2.4,2l-0.2,0.2l-0.1,0.3c-0.9,3.2-2.1,6.3-3.6,9.2
				c-1.4,2.7-3,5.3-4.8,7.7l-0.6,0.8l4.5,3.4l0.6-0.8c5.3-7,9-15.3,10.7-24.1h0l0.6-3.1L119.6,74z"/>
			<g>
				<path class="st0" d="M35.6,63.2c-5.1-3.8-9.3-9.5-11.7-16.2l-0.4-1l-1,0.5c-7.3,3.6-13.9,9.5-18.9,17L3.3,64l0.4,0.5
					c2.5,3.8,5.5,7.2,8.7,10.1c3.2,2.8,6.6,5.1,10.1,6.9l1,0.5l0.4-1h0c2.4-6.7,6.5-12.4,11.7-16.2l1.1-0.8L35.6,63.2z M20.8,73.6
					c-3.6-2.5-6.9-5.8-9.8-9.6c2.9-3.8,6.2-7.1,9.8-9.6c2,3.6,4.6,6.9,7.5,9.6C25.3,66.7,22.8,70,20.8,73.6z"/>
			</g>
			<path class="st0" d="M35.9,41.7l-0.6,0.8c-1.2,1.7-2.3,3.4-3.3,5.3c-1,2-1.9,4.1-2.5,6.3l-0.1,0.4l0.2,0.4c0.6,0.9,1,1.5,1.4,2.1
				c0.5,0.6,1,1.3,1.5,1.9l1.3,1.5l0.4-2c0.4-2.2,1.1-4.4,2-6.6c0.9-2.1,2.1-4.1,3.5-5.9l0.6-0.8L35.9,41.7z"/>
			<path class="st0" d="M6.1,56.1L8.4,54c0.8-0.8,1.6-1.5,2.3-2.2c0.8-0.7,1.6-1.4,2.4-2l0.2-0.2l0.1-0.3c0.9-3.2,2.2-6.3,3.6-9.2
				c1.4-2.7,3-5.3,4.8-7.7l0.6-0.8L18,28.2L17.4,29c-5.3,7-9,15.3-10.7,24.1l0.1,0l-0.1,0L6.1,56.1z"/>
			<path class="st0" d="M34.3,69.7l-0.4-2l-1.3,1.5c-0.6,0.6-1.1,1.3-1.6,1.9c-0.5,0.7-1,1.4-1.4,2.1l-0.2,0.4l0.1,0.4
				c0.6,2.2,1.5,4.3,2.5,6.3c0.9,1.8,2,3.6,3.3,5.3l0.6,0.8l4.5-3.4l-0.6-0.8c-1.4-1.8-2.5-3.8-3.5-5.9
				C35.4,74.1,34.7,71.9,34.3,69.7z"/>
			<path class="st0" d="M17.1,87.9c-1.5-2.9-2.7-6-3.6-9.2l-0.1-0.3l-0.2-0.2c-0.8-0.6-1.6-1.3-2.4-2C10,75.6,9.2,74.8,8.4,74
				l-2.2-2.2l0.6,3.1C8.4,83.7,12.1,92,17.4,99l0.6,0.8l4.5-3.4l-0.6-0.8C20.1,93.2,18.5,90.6,17.1,87.9z"/>
			<g>
				<path class="st0" d="M124.3,63.5c-2.5-3.8-5.5-7.2-8.7-10.1c-3.2-2.8-6.6-5.1-10.1-6.9l-1-0.5l-0.4,1
					c-2.4,6.7-6.5,12.4-11.7,16.2L91.4,64l1.1,0.8c5.1,3.8,9.3,9.5,11.7,16.2l0.4,1l1-0.5c7.3-3.6,13.9-9.5,18.9-17l0.4-0.5
					L124.3,63.5z M107.2,73.6c-2-3.6-4.6-6.9-7.5-9.6c2.9-2.7,5.5-6,7.5-9.6c3.6,2.5,6.9,5.8,9.8,9.6
					C114.1,67.8,110.8,71.1,107.2,73.6z"/>
			</g>
		</g>
		<g>
			<path d="M64,28.3c2.7-2.9,6-5.5,9.6-7.5c-2.5-3.6-5.8-6.9-9.6-9.8c-3.8,2.9-7.1,6.2-9.6,9.8C58,22.8,61.3,25.3,64,28.3z"/>
			<path d="M64,99.7c-2.7,2.9-6,5.5-9.6,7.5c2.5,3.6,5.8,6.9,9.6,9.8c3.8-2.9,7.1-6.2,9.6-9.8C70,105.2,66.7,102.7,64,99.7z"/>
			<path d="M28.3,64c-2.9-2.7-5.5-6-7.5-9.6c-3.6,2.5-6.9,5.8-9.8,9.6c2.9,3.8,6.2,7.1,9.8,9.6C22.8,70,25.3,66.7,28.3,64z"/>
			<path d="M126.1,66.4c0.5-0.8,1-1.5,1.6-2.4c-0.5-0.8-1-1.6-1.6-2.4c-0.7-1-1.4-1.9-2-2.7l-0.2-0.2l0-0.3
				c-0.7-6.6-2.3-12.9-4.9-18.6c-1.4-3.1-2.9-5.9-4.6-8.5c-1.6-2.4-3.4-4.7-5.3-6.9l-11,10l-2.1-2.3l-2.2-2.1l10-11
				c-2.2-1.9-4.5-3.7-6.9-5.3c-2.6-1.7-5.5-3.3-8.5-4.6c-5.7-2.6-12-4.2-18.7-4.9l-0.3,0L69.1,4c-1-0.8-1.9-1.4-2.7-2
				c-0.8-0.6-1.6-1.1-2.4-1.6c-0.8,0.5-1.6,1-2.4,1.6c-0.9,0.6-1.7,1.3-2.7,2l-0.2,0.2l-0.3,0C51.7,4.8,45.5,6.5,39.7,9
				c-3.1,1.4-5.9,2.9-8.5,4.6c-2.4,1.6-4.7,3.3-6.9,5.3l10,11l-2.3,2.1l-2.1,2.2l-11-10c-1.9,2.2-3.7,4.5-5.3,6.9
				c-1.7,2.6-3.2,5.5-4.6,8.5c-2.6,5.7-4.2,12-4.9,18.7l0,0.3L4,58.9c-0.7,0.9-1.4,1.9-2,2.7c-0.5,0.8-1.1,1.6-1.6,2.4
				c0.5,0.9,1.1,1.6,1.6,2.4c0.6,0.8,1.2,1.7,2,2.7l0.2,0.2l0,0.3C4.8,76.3,6.5,82.5,9,88.3c1.4,3.1,2.9,5.9,4.6,8.5
				c1.6,2.4,3.4,4.7,5.3,6.9l11-10l2.1,2.3l2.2,2.1l-10,11c2.2,1.9,4.5,3.7,6.9,5.3c2.6,1.7,5.5,3.3,8.5,4.6
				c5.8,2.6,12,4.2,18.6,4.9l0.3,0l0.2,0.2c1,0.8,1.9,1.4,2.7,2c0.8,0.5,1.5,1,2.4,1.6c0.9-0.5,1.6-1.1,2.4-1.6
				c0.9-0.6,1.8-1.3,2.7-2l0.2-0.2l0.3,0c6.6-0.7,12.9-2.3,18.6-4.9c3-1.4,5.9-2.9,8.5-4.6c2.4-1.6,4.7-3.4,6.9-5.3l-10-11l2.3-2.1
				l2.1-2.2l11,10c1.9-2.2,3.7-4.5,5.3-6.9c1.7-2.6,3.3-5.5,4.6-8.5c2.6-5.7,4.2-12,4.9-18.6l0-0.3l0.2-0.2
				C124.7,68.2,125.4,67.3,126.1,66.4z M110,28.2l0.6,0.8c5.3,7,9,15.3,10.7,24.1l0.6,3l-2.2-2.2c-0.8-0.8-1.6-1.5-2.4-2.2
				c-0.8-0.7-1.6-1.3-2.4-2l-0.2-0.2l-0.1-0.3c-0.9-3.2-2.2-6.3-3.6-9.2c-1.4-2.7-3-5.3-4.8-7.7l-0.6-0.8L110,28.2z M96,47.7
				L96,47.7c1,2,1.9,4.1,2.5,6.3l0.1,0.4l-0.2,0.4c-0.4,0.6-0.9,1.3-1.4,2.1c-0.6,0.7-1,1.3-1.6,1.9l-1.3,1.5l-0.4-2
				c-0.4-2.2-1.1-4.4-2-6.5c-0.9-2.1-2.1-4.1-3.5-5.9l-0.6-0.8l4.5-3.4l0.6,0.8C94,44.1,95.1,45.9,96,47.7z M74.9,6.7
				C83.7,8.4,92,12.1,99,17.4l0.8,0.6l-3.4,4.5l-0.8-0.6c-2.4-1.8-5-3.5-7.7-4.8c-2.9-1.5-6-2.7-9.2-3.6l-0.3-0.1l-0.2-0.2
				c-0.6-0.8-1.3-1.6-2-2.4C75.5,10,74.8,9.2,74,8.4l-2.2-2.2L74.9,6.7z M45.1,87.6l0.8,0.6c1.8,1.4,3.8,2.5,5.9,3.5
				c2.2,0.9,4.4,1.6,6.6,2l2,0.4l-1.5,1.3c-0.6,0.6-1.3,1.1-1.9,1.5c-0.7,0.5-1.3,0.9-2.1,1.4l-0.4,0.2L54,98.5
				c-2.2-0.6-4.3-1.5-6.3-2.5c-1.8-0.9-3.6-2-5.2-3.3l-0.8-0.6L45.1,87.6z M41.7,35.9l0.8-0.6c1.6-1.2,3.4-2.3,5.2-3.3
				c2-1,4.1-1.9,6.3-2.5l0.4-0.1l0.4,0.2c0.7,0.4,1.4,0.9,2.1,1.4c0.8,0.6,1.4,1.1,1.9,1.5l1.5,1.3l-2,0.4c-2.2,0.4-4.4,1.1-6.6,2
				c-2.1,0.9-4.1,2.1-5.9,3.5l-0.8,0.6L41.7,35.9z M67.7,33.9l1.5-1.3c0.6-0.5,1.2-1,1.9-1.5c0.7-0.5,1.4-1,2.1-1.4l0.4-0.2l0.4,0.1
				c2.2,0.6,4.3,1.5,6.3,2.5c1.8,0.9,3.6,2,5.3,3.3l0.8,0.6l-3.4,4.5l-0.8-0.6c-1.8-1.4-3.8-2.5-5.9-3.5c-2.1-0.9-4.3-1.6-6.6-2
				L67.7,33.9z M69.7,93.7c2.2-0.4,4.4-1.1,6.6-2c2.1-0.9,4.1-2.1,5.9-3.5l0.8-0.6l3.4,4.5l-0.8,0.6c-1.7,1.2-3.4,2.3-5.2,3.3
				c-2,1-4.1,1.9-6.3,2.5l-0.4,0.1l-0.4-0.2c-0.8-0.5-1.4-0.9-2.1-1.4c-0.8-0.6-1.4-1.1-1.9-1.5l-1.5-1.3L69.7,93.7z M63.5,3.7
				L64,3.3l0.5,0.4c7.5,5,13.4,11.5,17,18.9l0.5,1l-1,0.4c-3.4,1.2-6.6,2.9-9.4,4.9c-2.7,2-5,4.2-6.8,6.7L64,36.6l-0.8-1.1
				c-3.8-5.1-9.5-9.3-16.2-11.7l-1-0.4l0.5-1c1.8-3.6,4.1-7,6.9-10.1C56.3,9.2,59.7,6.2,63.5,3.7z M32.4,21.9l-0.8,0.6L28.2,18
				l0.8-0.6c7-5.3,15.3-9,24.1-10.7l3-0.6L54,8.4c-0.8,0.8-1.5,1.6-2.2,2.4c-0.7,0.8-1.4,1.7-2,2.4l-0.2,0.2l-0.3,0.1
				c-3.2,0.9-6.3,2.1-9.2,3.6C37.4,18.5,34.8,20.1,32.4,21.9z M29.5,54c0.6-2.2,1.5-4.3,2.5-6.3c0.9-1.8,2-3.6,3.3-5.3l0.6-0.8
				l4.5,3.4l-0.6,0.8c-1.4,1.8-2.5,3.8-3.5,5.9c-0.9,2.1-1.6,4.3-2,6.6l-0.4,2l-1.3-1.5c-0.6-0.6-1.1-1.3-1.5-1.9
				c-0.4-0.6-0.9-1.2-1.4-2.1l-0.2-0.4L29.5,54z M6.7,53.1C8.4,44.3,12.1,36,17.4,29l0.6-0.8l4.5,3.4l-0.6,0.8
				c-1.8,2.4-3.4,5-4.8,7.7c-1.5,2.9-2.7,6-3.6,9.2l-0.1,0.3l-0.2,0.2c-0.8,0.6-1.6,1.3-2.4,2c-0.8,0.7-1.6,1.4-2.3,2.2l-2.2,2.2
				L6.7,53.1L6.7,53.1L6.7,53.1z M18,99.8L17.4,99c-5.3-7-9-15.3-10.7-24.1l-0.6-3.1L8.4,74c0.8,0.8,1.7,1.6,2.3,2.2
				c0.8,0.7,1.6,1.4,2.4,2l0.2,0.2l0.1,0.3c0.9,3.2,2.1,6.3,3.6,9.2c1.4,2.7,3,5.3,4.8,7.7l0.6,0.8L18,99.8z M23.9,81l-0.4,1l-1-0.5
				c-3.6-1.7-7-4-10.1-6.9c-3.3-2.9-6.2-6.3-8.7-10.1L3.3,64l0.4-0.5c5-7.5,11.5-13.4,18.9-17l1-0.5l0.4,1
				c2.4,6.7,6.5,12.4,11.7,16.2l1.1,0.8l-1.1,0.8C30.4,68.6,26.3,74.3,23.9,81L23.9,81z M32,80.3c-1-2-1.9-4.1-2.5-6.3l-0.1-0.4
				l0.2-0.4c0.4-0.7,0.9-1.4,1.4-2.1c0.5-0.6,1-1.3,1.6-1.9l1.3-1.5l0.4,2c0.4,2.2,1.1,4.4,2,6.6c0.9,2.1,2.1,4.1,3.5,5.9l0.6,0.8
				l-4.5,3.4l-0.6-0.8C34,83.9,32.9,82.1,32,80.3z M53.1,121.3c-8.8-1.7-17.1-5.4-24.1-10.7l-0.8-0.6l3.4-4.5l0.8,0.6
				c2.4,1.8,5,3.4,7.7,4.8c3,1.5,6.1,2.7,9.2,3.6l0.3,0.1l0.2,0.2c0.6,0.7,1.3,1.6,2,2.4c0.6,0.6,1.3,1.5,2.2,2.3l2.2,2.2
				L53.1,121.3z M64.5,124.3l-0.5,0.4l-0.5-0.4c-7.5-5-13.4-11.5-17-18.9l-0.5-1l1-0.4c6.7-2.4,12.4-6.5,16.2-11.7l0.8-1.1l0.8,1.1
				c3.8,5.1,9.5,9.3,16.2,11.7l1,0.4l-0.5,1c-1.7,3.6-4.1,7-6.9,10.1C71.7,118.8,68.3,121.8,64.5,124.3z M95.6,106.1L95.6,106.1
				l0.8-0.6l3.4,4.5l-0.8,0.6c-7,5.3-15.3,9-24.1,10.7l-3,0.6l2.2-2.2c0.8-0.8,1.6-1.7,2.2-2.3c0.7-0.8,1.4-1.7,2-2.4l0.2-0.2
				l0.3-0.1c3.2-0.9,6.3-2.1,9.2-3.6C90.6,109.5,93.2,107.9,95.6,106.1z M98.5,74c-0.6,2.2-1.5,4.3-2.5,6.3c-0.9,1.8-2,3.6-3.3,5.3
				l-0.6,0.8l-4.5-3.4l0.6-0.8c1.4-1.8,2.5-3.8,3.5-5.9c0.9-2.1,1.6-4.3,2-6.6l0.4-2l1.3,1.5c0.6,0.6,1.1,1.3,1.5,1.9
				c0.5,0.7,1,1.4,1.4,2.1l0.2,0.4L98.5,74z M121.3,74.9c-1.7,8.8-5.4,17.1-10.7,24.1l-0.6,0.8l-4.5-3.4l0.6-0.8
				c1.8-2.4,3.4-5,4.8-7.7c1.5-2.9,2.7-6,3.6-9.2l0.1-0.3l0.2-0.2c0.8-0.6,1.6-1.3,2.4-2c0.8-0.7,1.6-1.4,2.3-2.2l2.2-2.2
				L121.3,74.9L121.3,74.9z M105.5,81.5l-1,0.5l-0.4-1c-2.4-6.7-6.5-12.4-11.7-16.2L91.4,64l1.1-0.8c5.1-3.8,9.3-9.5,11.7-16.2
				l0.4-1l1,0.5c3.6,1.7,7,4,10.1,6.9c3.3,2.9,6.2,6.3,8.7,10.1l0.4,0.5l-0.4,0.5C119.3,72,112.8,77.9,105.5,81.5z"/>
			<path d="M107.2,54.4c-2,3.6-4.6,6.9-7.5,9.6c2.9,2.7,5.5,6,7.5,9.6c3.6-2.5,6.9-5.8,9.8-9.6C114.1,60.2,110.8,56.9,107.2,54.4z"
				/>
		</g>
	</g>
	<path class="st0" d="M47.5,63.3c0,0,14.4-5.9,19.4-8c1.9-0.8,8.4-3.5,8.4-3.5s3-1.2,2.7,1.7c-0.1,1.2-0.7,5.2-1.4,9.6
		c-1,6.2-2.1,13-2.1,13s-0.2,1.9-1.6,2.2c-1.4,0.3-3.7-1.2-4.2-1.5c-0.3-0.2-6.2-4-8.4-5.8c-0.6-0.5-1.2-1.5,0.1-2.7
		c3-2.7,6.6-6.1,8.7-8.3c1-1,2-3.3-2.2-0.5c-5.9,4.1-11.7,7.9-11.7,7.9s-1.3,0.8-3.8,0.1c-2.5-0.7-5.4-1.7-5.4-1.7
		S44,64.6,47.5,63.3L47.5,63.3z"/>
</g>
</svg>
