<?xml version="1.0" encoding="utf-8"?>
<!-- Generator: Adobe Illustrator 28.1.0, SVG Export Plug-In . SVG Version: 6.00 Build 0)  -->
<svg version="1.1" id="Layer_1" xmlns="http://www.w3.org/2000/svg" xmlns:xlink="http://www.w3.org/1999/xlink" x="0px" y="0px"
	 viewBox="0 0 128 128" style="enable-background:new 0 0 128 128;" xml:space="preserve">
<style type="text/css">
	.st0{display:none;fill:none;stroke:#FFFFFF;stroke-miterlimit:10;}
	.st1{fill:none;stroke:#ECEBE9;stroke-width:9;stroke-miterlimit:10;}
	.st2{fill:#333333;}
	.st3{fill:none;stroke:#333333;stroke-width:6;stroke-miterlimit:10;}
	.st4{fill:none;stroke:#ECEBE9;stroke-width:2;stroke-miterlimit:10;}
</style>
<rect x="-541.4" class="st0" width="128" height="128"/>
<g>
	<path class="st1" d="M120.3,64c0,5.6-2.5,10.8-6.9,15.8c-4.6,5.2-11.1,10.2-18.8,14.7c-4.5,7.7-9.4,14.3-14.7,18.8
		c-5,4.4-10.4,6.9-15.8,6.9s-10.8-2.5-15.8-6.9C43,108.7,38,102.2,33.5,94.5c-7.8-4.5-14.3-9.4-18.9-14.7c-4.4-5-6.9-10.4-6.9-15.8
		s2.5-10.8,6.9-15.8c4.6-5.2,11.1-10.2,18.9-14.7C38,25.8,43,19.2,48.2,14.7c5-4.4,10.4-6.9,15.8-6.9c5.6,0,10.8,2.5,15.8,6.9
		c5.2,4.6,10.2,11.1,14.7,18.8c7.7,4.5,14.3,9.4,18.8,14.7C117.7,53.2,120.3,58.4,120.3,64z"/>
	<path class="st2" d="M120.3,64c0,5.6-2.5,10.8-6.9,15.8c-4.6,5.2-11.1,10.2-18.8,14.7c-4.5,7.7-9.4,14.3-14.7,18.8
		c-5,4.4-10.4,6.9-15.8,6.9s-10.8-2.5-15.8-6.9C43,108.7,38,102.2,33.5,94.5c-7.8-4.5-14.3-9.4-18.9-14.7c-4.4-5-6.9-10.4-6.9-15.8
		s2.5-10.8,6.9-15.8c4.6-5.2,11.1-10.2,18.9-14.7C38,25.8,43,19.2,48.2,14.7c5-4.4,10.4-6.9,15.8-6.9c5.6,0,10.8,2.5,15.8,6.9
		c5.2,4.6,10.2,11.1,14.7,18.8c7.7,4.5,14.3,9.4,18.8,14.7C117.7,53.2,120.3,58.4,120.3,64z"/>
	<path class="st3" d="M120.3,64c0,5.6-2.5,10.8-6.9,15.8c-4.6,5.2-11.1,10.2-18.8,14.7c-4.5,7.7-9.4,14.3-14.7,18.8
		c-5,4.4-10.4,6.9-15.8,6.9s-10.8-2.5-15.8-6.9C43,108.7,38,102.2,33.5,94.5c-7.8-4.5-14.3-9.4-18.9-14.7c-4.4-5-6.9-10.4-6.9-15.8
		s2.5-10.8,6.9-15.8c4.6-5.2,11.1-10.2,18.9-14.7C38,25.8,43,19.2,48.2,14.7c5-4.4,10.4-6.9,15.8-6.9c5.6,0,10.8,2.5,15.8,6.9
		c5.2,4.6,10.2,11.1,14.7,18.8c7.7,4.5,14.3,9.4,18.8,14.7C117.7,53.2,120.3,58.4,120.3,64z"/>
	<g>
		<path class="st4" d="M113.3,79.8c-4.6,5.2-11.1,10.2-18.8,14.7c-4.5,7.7-9.4,14.3-14.7,18.8c-5,4.4-10.4,6.9-15.8,6.9
			s-10.8-2.5-15.8-6.9c-5.2-4.6-10.2-11.1-14.7-18.8c-7.8-4.5-14.3-9.4-18.9-14.7c1.5-5.2,3.1-10.6,5-15.8
			c3.9-10.9,8.5-21.5,13.8-30.5c4.5-7.7,9.4-14.3,14.7-18.8c5-4.4,10.4-6.9,15.8-6.9c5.6,0,10.8,2.5,15.8,6.9
			C85,19.3,90,25.8,94.5,33.5c5.2,9,10,19.6,13.7,30.5C110.1,69.2,111.8,74.6,113.3,79.8z"/>
		<path class="st4" d="M113.3,48.2c-1.5,5.2-3.1,10.6-5,15.8c-3.9,10.9-8.5,21.5-13.7,30.5c-4.5,7.7-9.4,14.3-14.7,18.8
			c-5,4.4-10.4,6.9-15.8,6.9s-10.8-2.5-15.8-6.9c-5.2-4.6-10.2-11.1-14.7-18.8c-5.2-9-10-19.6-13.8-30.5c-1.8-5.2-3.5-10.6-4.9-15.8
			c4.6-5.2,11.1-10.2,18.9-14.7C38,25.8,43,19.2,48.2,14.7c5-4.4,10.4-6.9,15.8-6.9c5.6,0,10.8,2.5,15.8,6.9
			c5.2,4.6,10.2,11.1,14.7,18.8C102.2,38,108.7,42.9,113.3,48.2z"/>
		<path class="st4" d="M120.3,64c0,5.6-2.5,10.8-6.9,15.8c-4.6,5.2-11.1,10.2-18.8,14.7c-4.5,7.7-9.4,14.3-14.7,18.8
			c-5,4.4-10.4,6.9-15.8,6.9s-10.8-2.5-15.8-6.9C43,108.7,38,102.2,33.5,94.5c-7.8-4.5-14.3-9.4-18.9-14.7c-4.4-5-6.9-10.4-6.9-15.8
			s2.5-10.8,6.9-15.8c4.6-5.2,11.1-10.2,18.9-14.7C38,25.8,43,19.2,48.2,14.7c5-4.4,10.4-6.9,15.8-6.9c5.6,0,10.8,2.5,15.8,6.9
			c5.2,4.6,10.2,11.1,14.7,18.8c7.7,4.5,14.3,9.4,18.8,14.7C117.7,53.2,120.3,58.4,120.3,64z"/>
		<path class="st4" d="M120.3,64c0,5.6-2.5,10.8-6.9,15.8c-4.6,5.2-11.1,10.2-18.8,14.7c-4.5,7.7-9.4,14.3-14.7,18.8
			c-5.2-1.5-10.6-3.1-15.8-5c-10.9-3.9-21.5-8.5-30.5-13.7c-7.8-4.5-14.3-9.4-18.9-14.7c-4.4-5-6.9-10.4-6.9-15.8s2.5-10.8,6.9-15.8
			c4.6-5.2,11.1-10.2,18.9-14.7c9-5.2,19.6-10,30.5-13.7c5.2-1.9,10.6-3.6,15.8-5c5.2,4.6,10.2,11.1,14.7,18.8
			c7.7,4.5,14.3,9.4,18.8,14.7C117.7,53.2,120.3,58.4,120.3,64z"/>
		<path class="st4" d="M120.3,64c0,5.6-2.5,10.8-6.9,15.8c-4.6,5.2-11.1,10.2-18.8,14.7c-9,5.2-19.6,10-30.5,13.7
			c-5.2,1.9-10.6,3.6-15.8,5C43,108.7,38,102.2,33.5,94.5c-7.8-4.5-14.3-9.4-18.9-14.7c-4.4-5-6.9-10.4-6.9-15.8s2.5-10.8,6.9-15.8
			c4.6-5.2,11.1-10.2,18.9-14.7C38,25.8,43,19.2,48.2,14.7c5.2,1.5,10.6,3.1,15.8,5c10.9,3.9,21.5,8.5,30.5,13.7
			c7.7,4.5,14.3,9.4,18.8,14.7C117.7,53.2,120.3,58.4,120.3,64z"/>
	</g>
</g>
</svg>
